<svg width="56" height="56" viewBox="0 0 56 56" fill="none" xmlns="http://www.w3.org/2000/svg">
<path d="M21.2357 55.279V36.659H15.463V28.1027H21.2357V24.416C21.2357 14.8843 25.5477 10.4673 34.9043 10.4673C35.84 10.4673 37.1327 10.5653 38.3297 10.7077C39.226 10.802 40.1152 10.954 40.992 11.1627V18.921C40.4853 18.8745 39.9771 18.8465 39.4683 18.837C38.8983 18.8223 38.3282 18.8153 37.758 18.816C36.1083 18.816 34.8203 19.04 33.8497 19.537C33.1981 19.8658 32.6499 20.368 32.2653 20.9883C31.6633 21.9683 31.3927 23.31 31.3927 25.0763V28.1027H40.537L39.6363 33.0097L38.9667 36.659H31.3927V55.8973C45.2573 54.222 56 42.4177 56 28.1027C56 12.6397 43.463 0.102661 28 0.102661C12.537 0.102661 0 12.6397 0 28.1027C0 41.2347 9.03933 52.2527 21.2357 55.279Z" fill="white"/>
</svg>
