<svg width="52" height="52" viewBox="0 0 52 52" fill="none" xmlns="http://www.w3.org/2000/svg">
<path d="M2.25 26C2.25 14.805 2.25 9.205 5.7275 5.7275C9.205 2.25 14.8025 2.25 26 2.25C37.195 2.25 42.795 2.25 46.2725 5.7275C49.75 9.205 49.75 14.8025 49.75 26C49.75 37.195 49.75 42.795 46.2725 46.2725C42.795 49.75 37.1975 49.75 26 49.75C14.805 49.75 9.205 49.75 5.7275 46.2725C2.25 42.795 2.25 37.1975 2.25 26Z" stroke="white" stroke-width="3.75" stroke-linecap="round" stroke-linejoin="round"/>
<path d="M39.77 12.25H39.745M37.25 26C37.25 28.9837 36.0647 31.8452 33.955 33.955C31.8452 36.0647 28.9837 37.25 26 37.25C23.0163 37.25 20.1548 36.0647 18.045 33.955C15.9353 31.8452 14.75 28.9837 14.75 26C14.75 23.0163 15.9353 20.1548 18.045 18.045C20.1548 15.9353 23.0163 14.75 26 14.75C28.9837 14.75 31.8452 15.9353 33.955 18.045C36.0647 20.1548 37.25 23.0163 37.25 26Z" stroke="white" stroke-width="3.75" stroke-linecap="round" stroke-linejoin="round"/>
</svg>
