<svg width="60" height="42" viewBox="0 0 60 42" fill="none" xmlns="http://www.w3.org/2000/svg">
<path d="M24.1663 29.75L39.3038 21L24.1663 12.25V29.75ZM57.883 6.91248C58.2622 8.28331 58.5247 10.1208 58.6997 12.4541C58.9038 14.7875 58.9913 16.8 58.9913 18.55L59.1663 21C59.1663 27.3875 58.6997 32.0833 57.883 35.0875C57.1538 37.7125 55.4622 39.4041 52.8372 40.1333C51.4663 40.5125 48.958 40.775 45.108 40.95C41.3163 41.1541 37.8455 41.2416 34.6372 41.2416L29.9997 41.4166C17.7788 41.4166 10.1663 40.95 7.16217 40.1333C4.53717 39.4041 2.84551 37.7125 2.11634 35.0875C1.73717 33.7166 1.47467 31.8791 1.29967 29.5458C1.09551 27.2125 1.00801 25.2 1.00801 23.45L0.833008 21C0.833008 14.6125 1.29967 9.91665 2.11634 6.91248C2.84551 4.28748 4.53717 2.59581 7.16217 1.86665C8.53301 1.48748 11.0413 1.22498 14.8913 1.04998C18.683 0.845813 22.1538 0.758313 25.3622 0.758313L29.9997 0.583313C42.2205 0.583313 49.833 1.04998 52.8372 1.86665C55.4622 2.59581 57.1538 4.28748 57.883 6.91248Z" fill="white"/>
</svg>
