<svg width="70" height="70" viewBox="0 0 70 70" fill="none" xmlns="http://www.w3.org/2000/svg">
<path d="M34.9997 45.4328L24.6776 35.1137L26.7426 33.0137L33.5413 39.8124V14.5833H36.458V39.8124L43.2538 33.0166L45.3218 35.1137L34.9997 45.4328ZM19.2963 55.4166C17.9527 55.4166 16.8318 54.9674 15.9334 54.0691C15.0351 53.1707 14.585 52.0488 14.583 50.7033V43.6362H17.4997V50.7033C17.4997 51.1524 17.6863 51.5646 18.0597 51.9399C18.433 52.3152 18.8443 52.5019 19.2934 52.4999H50.7059C51.1531 52.4999 51.5644 52.3133 51.9397 51.9399C52.315 51.5666 52.5016 51.1544 52.4997 50.7033V43.6362H55.4163V50.7033C55.4163 52.0469 54.9672 53.1678 54.0688 54.0662C53.1705 54.9645 52.0486 55.4146 50.703 55.4166H19.2963Z" fill="black"/>
</svg>
