<svg width="50" height="50" viewBox="0 0 50 50" fill="none" xmlns="http://www.w3.org/2000/svg">
<path d="M32.7686 8.09157C35.7561 5.09157 40.1269 5.02907 42.5457 7.45823C44.9707 9.89157 44.9061 14.2916 41.9144 17.2916L36.8665 22.3603C36.5823 22.6554 36.4253 23.0503 36.4295 23.46C36.4336 23.8697 36.5985 24.2614 36.8886 24.5507C37.1787 24.84 37.5709 25.0038 37.9806 25.0067C38.3903 25.0097 38.7847 24.8516 39.079 24.5666L44.129 19.4978C48.1103 15.4999 48.6103 9.11865 44.7603 5.25198C40.9061 1.38323 34.5373 1.8874 30.5519 5.88532L20.4561 16.0249C16.4749 20.0228 15.9748 26.4041 19.8248 30.2687C19.9686 30.4182 20.1408 30.5376 20.3312 30.6199C20.5216 30.7022 20.7265 30.7458 20.934 30.748C21.1414 30.7503 21.3472 30.7113 21.5394 30.6331C21.7316 30.555 21.9063 30.4394 22.0534 30.2931C22.2004 30.1467 22.3168 29.9726 22.3958 29.7808C22.4749 29.5889 22.5149 29.3833 22.5136 29.1759C22.5123 28.9684 22.4697 28.7633 22.3883 28.5725C22.3069 28.3817 22.1883 28.209 22.0394 28.0645C19.6144 25.6312 19.6811 21.2312 22.6707 18.2312L32.7686 8.09157Z" fill="black"/>
<path d="M30.1774 19.7291C29.8845 19.4354 29.487 19.2701 29.0723 19.2695C28.6576 19.2689 28.2596 19.4331 27.9659 19.726C27.6723 20.0188 27.5069 20.4163 27.5064 20.8311C27.5058 21.2458 27.67 21.6438 27.9628 21.9374C30.3878 24.3708 30.3232 28.7687 27.3316 31.7708L17.2336 41.9083C14.2441 44.9083 9.87322 44.9708 7.45447 42.5416C5.02947 40.1083 5.09614 35.7083 8.08572 32.7083L13.1357 27.6395C13.2806 27.4941 13.3954 27.3216 13.4736 27.1318C13.5518 26.942 13.5918 26.7387 13.5914 26.5335C13.591 26.3282 13.5502 26.125 13.4713 25.9355C13.3924 25.7461 13.277 25.574 13.1316 25.4291C12.9861 25.2842 12.8136 25.1694 12.6238 25.0912C12.4341 25.0131 12.2307 24.973 12.0255 24.9734C11.8202 24.9738 11.6171 25.0146 11.4276 25.0935C11.2381 25.1724 11.066 25.2879 10.9211 25.4333L5.87114 30.502C1.88989 34.502 1.38989 40.8812 5.23989 44.7479C9.09406 48.6187 15.4628 48.1124 19.4482 44.1145L29.5461 33.9749C33.5274 29.9791 34.0274 23.5937 30.1774 19.7291Z" fill="black"/>
</svg>
