<svg width="120" height="120" viewBox="0 0 120 120" fill="none" xmlns="http://www.w3.org/2000/svg">
<path d="M0 74.1067C0 68.08 1.18619 62.112 3.491 56.5443C5.79583 50.976 9.17392 45.9168 13.4326 41.6552C17.6913 37.3936 22.7469 34.0131 28.3111 31.7067C33.8755 29.4006 39.8391 28.2134 45.8618 28.2134V74.1067H0Z" fill="#442781"/>
<path d="M0 74.1064C0 80.1334 1.18619 86.1011 3.491 91.6694C5.79583 97.2374 9.17392 102.297 13.4326 106.558C17.6913 110.82 22.7469 114.2 28.3111 116.507C33.8755 118.813 39.8391 120 45.8618 120V74.1064H0Z" fill="#61459C"/>
<path d="M91.7224 74.1064C91.7224 80.1334 90.5371 86.1011 88.2325 91.6694C85.9277 97.2374 82.5498 102.297 78.2904 106.558C74.0317 110.82 68.976 114.2 63.4116 116.507C57.8477 118.813 51.8838 120 45.8613 120V74.1064H91.7224Z" fill="#A992DB"/>
<path d="M120.001 34.4586C120.001 53.4896 104.583 68.9173 85.5654 68.9173H51.1309V34.4586C51.1309 15.4277 66.5479 0 85.5654 0C104.583 0 120.001 15.4277 120.001 34.4586Z" fill="#FF7917"/>
</svg>
