<svg width="60" height="60" viewBox="0 0 60 60" fill="none" xmlns="http://www.w3.org/2000/svg">
<path d="M57.4144 60L34.4809 37.0693C32.6497 38.6292 30.5439 39.8364 28.1633 40.6909C25.7828 41.5453 23.3901 41.9725 20.9852 41.9725C15.1206 41.9725 10.1569 39.9426 6.09412 35.8828C2.03137 31.823 0 26.8612 0 20.9973C0 15.1334 2.02893 10.1691 6.0868 6.10437C10.1447 2.03968 15.1059 0.0048913 20.9705 8.7815e-06C26.8351 -0.00487373 31.8013 2.02625 35.8689 6.09339C39.9365 10.1605 41.9703 15.1248 41.9703 20.9863C41.9703 23.5301 41.5199 25.9921 40.6189 28.3723C39.718 30.7525 38.5338 32.7885 37.0665 34.4803L60 57.4074L57.4144 60ZM20.9888 38.307C25.8475 38.307 29.9493 36.6347 33.2943 33.2902C36.6392 29.9457 38.3117 25.8432 38.3117 20.9826C38.3117 16.1221 36.6392 12.0208 33.2943 8.67868C29.9493 5.3366 25.8475 3.66434 20.9888 3.66189C16.1301 3.65945 12.0271 5.33171 8.67973 8.67868C5.33236 12.0256 3.65989 16.127 3.66233 20.9826C3.66477 25.8383 5.33724 29.9396 8.67973 33.2865C12.0222 36.6335 16.124 38.3058 20.9852 38.3033" fill="black"/>
</svg>
