<svg width="72" height="72" viewBox="0 0 72 72" fill="none" xmlns="http://www.w3.org/2000/svg">
<path opacity="0.5" fill-rule="evenodd" clip-rule="evenodd" d="M42.837 6.456C41.727 6 40.317 6 37.5 6C34.683 6 33.276 6 32.163 6.456C31.4306 6.75524 30.7647 7.19634 30.2035 7.75394C29.6423 8.31154 29.1969 8.97461 28.893 9.705C28.611 10.374 28.503 11.157 28.458 12.294C28.4366 13.1175 28.2062 13.922 27.7885 14.6321C27.3707 15.3421 26.7794 15.9343 26.07 16.353C25.3462 16.7553 24.5326 16.9684 23.7045 16.9726C22.8765 16.9768 22.0608 16.772 21.333 16.377C20.319 15.843 19.584 15.549 18.858 15.453C17.2697 15.2458 15.6638 15.6726 14.388 16.641C13.434 17.367 12.729 18.579 11.322 21C9.91197 23.421 9.20997 24.63 9.05097 25.815C8.84097 27.393 9.27297 28.989 10.251 30.252C10.695 30.828 11.322 31.311 12.291 31.917C13.722 32.808 14.64 34.326 14.64 36C14.64 37.674 13.722 39.192 12.294 40.08C11.322 40.689 10.695 41.172 10.248 41.748C9.76667 42.3726 9.41322 43.086 9.20783 43.8474C9.00244 44.6087 8.94913 45.403 9.05097 46.185C9.20997 47.367 9.91197 48.579 11.322 51C12.732 53.421 13.434 54.63 14.388 55.359C15.66 56.328 17.268 56.754 18.858 56.547C19.584 56.451 20.319 56.157 21.333 55.623C22.0611 55.2275 22.8774 55.0223 23.7061 55.0265C24.5347 55.0307 25.3488 55.2442 26.073 55.647C27.531 56.487 28.395 58.032 28.458 59.706C28.503 60.846 28.611 61.626 28.893 62.295C29.505 63.765 30.681 64.935 32.163 65.544C33.273 66 34.683 66 37.5 66C40.317 66 41.727 66 42.837 65.544C43.5693 65.2448 44.2352 64.8037 44.7964 64.2461C45.3576 63.6885 45.803 63.0254 46.107 62.295C46.389 61.626 46.497 60.846 46.542 59.706C46.602 58.032 47.469 56.484 48.93 55.647C49.6537 55.2447 50.4673 55.0316 51.2954 55.0274C52.1234 55.0232 52.9392 55.228 53.667 55.623C54.681 56.157 55.416 56.451 56.142 56.547C57.732 56.757 59.34 56.328 60.612 55.359C61.566 54.633 62.271 53.421 63.678 51C65.088 48.579 65.79 47.37 65.949 46.185C66.0504 45.4028 65.9966 44.6084 65.7907 43.847C65.5848 43.0857 65.2308 42.3724 64.749 41.748C64.305 41.172 63.678 40.689 62.709 40.083C61.278 39.192 60.36 37.674 60.36 36C60.36 34.326 61.278 32.808 62.706 31.92C63.678 31.311 64.305 30.828 64.752 30.252C65.2333 29.6274 65.5867 28.914 65.7921 28.1526C65.9975 27.3913 66.0508 26.5969 65.949 25.815C65.79 24.633 65.088 23.421 63.678 21C62.268 18.579 61.566 17.37 60.612 16.641C59.3362 15.6726 57.7302 15.2458 56.142 15.453C55.416 15.549 54.681 15.843 53.667 16.377C52.9388 16.7725 52.1225 16.9776 51.2939 16.9735C50.4653 16.9693 49.6511 16.7558 48.927 16.353C48.2181 15.9339 47.6274 15.3416 47.2102 14.6316C46.793 13.9216 46.5631 13.1172 46.542 12.294C46.497 11.154 46.389 10.374 46.107 9.705C45.803 8.97461 45.3576 8.31154 44.7964 7.75394C44.2352 7.19634 43.5693 6.75524 42.837 6.456Z" fill="black"/>
<path d="M46.5687 36C46.5687 40.971 42.5067 45 37.4997 45C32.4927 45 28.4307 40.971 28.4307 36C28.4307 31.029 32.4897 27 37.4997 27C42.5097 27 46.5687 31.029 46.5687 36Z" fill="black"/>
</svg>
